<?xml version="1.0" encoding="UTF-8" standalone="no"?>
<!DOCTYPE svg PUBLIC "-//W3C//DTD SVG 1.1//EN"
 "http://www.w3.org/Graphics/SVG/1.1/DTD/svg11.dtd">
<!-- Generated by graphviz version 2.40.1 (20161225.0304)
 -->
<!-- Title: %3 Pages: 1 -->
<svg width="558pt" height="176pt"
 viewBox="0.00 0.00 558.36 175.78" xmlns="http://www.w3.org/2000/svg" xmlns:xlink="http://www.w3.org/1999/xlink">
<g id="graph0" class="graph" transform="scale(1 1) rotate(0) translate(4 171.7817)">
<title>%3</title>
<polygon fill="#ffffff" stroke="transparent" points="-4,4 -4,-171.7817 554.3633,-171.7817 554.3633,4 -4,4"/>
<!-- In0 -->
<g id="node1" class="node">
<title>In0</title>
<polygon fill="#d3d3d3" stroke="#000000" points="171.7714,-103.6899 146.7714,-103.6899 146.7714,-85.6899 171.7714,-85.6899 171.7714,-103.6899"/>
<text text-anchor="middle" x="159.2714" y="-92.4899" font-family="Times,serif" font-size="9.00" fill="#000000">In0</text>
</g>
<!-- act1 -->
<g id="node11" class="node">
<title>act1</title>
<ellipse fill="#add8e6" stroke="#000000" cx="181.2714" cy="-19.799" rx="19.6" ry="19.6"/>
<text text-anchor="middle" x="181.2714" y="-17.599" font-family="Times,serif" font-size="9.00" fill="#000000">act1</text>
</g>
<!-- In0&#45;&gt;act1 -->
<g id="edge1" class="edge">
<title>In0&#45;&gt;act1</title>
<path fill="none" stroke="#00ff00" stroke-width=".4664" d="M161.9691,-85.5068C164.6755,-76.2938 168.9849,-61.6238 172.846,-48.4802"/>
<polygon fill="#00ff00" stroke="#00ff00" stroke-width=".4664" points="176.2167,-49.4235 175.6772,-38.8424 169.5005,-47.4505 176.2167,-49.4235"/>
</g>
<!-- act2 -->
<g id="node12" class="node">
<title>act2</title>
<ellipse fill="#add8e6" stroke="#000000" cx="327.2714" cy="-19.799" rx="19.6" ry="19.6"/>
<text text-anchor="middle" x="327.2714" y="-17.599" font-family="Times,serif" font-size="9.00" fill="#000000">act2</text>
</g>
<!-- In0&#45;&gt;act2 -->
<g id="edge2" class="edge">
<title>In0&#45;&gt;act2</title>
<path fill="none" stroke="#00ff00" stroke-width=".4938" d="M168.0704,-85.3248C171.6188,-81.9312 175.9036,-78.2778 180.2714,-75.598 218.1082,-52.3838 267.1912,-36.1466 297.9651,-27.3897"/>
<polygon fill="#00ff00" stroke="#00ff00" stroke-width=".4938" points="298.9528,-30.748 307.6569,-24.7074 297.0856,-24.0016 298.9528,-30.748"/>
</g>
<!-- In1 -->
<g id="node2" class="node">
<title>In1</title>
<polygon fill="#d3d3d3" stroke="#000000" points="496.7714,-167.7817 471.7714,-167.7817 471.7714,-149.7817 496.7714,-149.7817 496.7714,-167.7817"/>
<text text-anchor="middle" x="484.2714" y="-156.5817" font-family="Times,serif" font-size="9.00" fill="#000000">In1</text>
</g>
<!-- In1&#45;&gt;act1 -->
<g id="edge3" class="edge">
<title>In1&#45;&gt;act1</title>
<path fill="none" stroke="#ff0000" stroke-width=".2555" d="M471.3819,-158.2918C406.7474,-155.706 120.0067,-142.6572 94.2714,-113.7817 82.9801,-101.1127 86.1315,-90.489 94.2714,-75.598 106.6235,-53.0015 132.4687,-38.204 152.7963,-29.5627"/>
<polygon fill="#ff0000" stroke="#ff0000" stroke-width=".2555" points="154.2472,-32.7525 162.2488,-25.808 151.663,-26.2469 154.2472,-32.7525"/>
</g>
<!-- In1&#45;&gt;act2 -->
<g id="edge4" class="edge">
<title>In1&#45;&gt;act2</title>
<path fill="none" stroke="#ff0000" stroke-width=".4332" stroke-dasharray="1,5" d="M484.7672,-149.5825C485.1649,-132.8404 483.6188,-97.1367 465.2714,-75.598 437.7191,-43.2531 388.6357,-29.439 357.0423,-23.6947"/>
<polygon fill="#ff0000" stroke="#ff0000" stroke-width=".4332" points="357.4923,-20.2216 347.0548,-22.0409 356.3487,-27.1276 357.4923,-20.2216"/>
</g>
<!-- 205 -->
<g id="node13" class="node">
<title>205</title>
<ellipse fill="#ffffff" stroke="#000000" cx="531.2714" cy="-94.6899" rx="19.1842" ry="19.1842"/>
<text text-anchor="middle" x="531.2714" y="-92.4899" font-family="Times,serif" font-size="9.00" fill="#000000">205</text>
</g>
<!-- In1&#45;&gt;205 -->
<g id="edge22" class="edge">
<title>In1&#45;&gt;205</title>
<path fill="none" stroke="#ff0000" stroke-width=".1157" d="M491.0054,-149.5989C496.9338,-141.5146 505.8327,-129.3796 513.7582,-118.5719"/>
<polygon fill="#ff0000" stroke="#ff0000" stroke-width=".1157" points="516.7391,-120.4255 519.8303,-110.2917 511.0942,-116.286 516.7391,-120.4255"/>
</g>
<!-- In3 -->
<g id="node3" class="node">
<title>In3</title>
<polygon fill="#d3d3d3" stroke="#000000" points="214.7714,-103.6899 189.7714,-103.6899 189.7714,-85.6899 214.7714,-85.6899 214.7714,-103.6899"/>
<text text-anchor="middle" x="202.2714" y="-92.4899" font-family="Times,serif" font-size="9.00" fill="#000000">In3</text>
</g>
<!-- In3&#45;&gt;act1 -->
<g id="edge5" class="edge">
<title>In3&#45;&gt;act1</title>
<path fill="none" stroke="#00ff00" stroke-width=".4497" d="M199.6964,-85.5068C197.1556,-76.4458 193.1347,-62.1063 189.4966,-49.1318"/>
<polygon fill="#00ff00" stroke="#00ff00" stroke-width=".4497" points="192.7665,-47.8297 186.6965,-39.1461 186.0265,-49.7197 192.7665,-47.8297"/>
</g>
<!-- In3&#45;&gt;act2 -->
<g id="edge6" class="edge">
<title>In3&#45;&gt;act2</title>
<path fill="none" stroke="#ff0000" stroke-width=".3975" d="M211.2638,-85.6181C214.8358,-82.2605 219.0864,-78.5551 223.2714,-75.598 247.651,-58.3714 277.9642,-42.6805 299.5617,-32.3564"/>
<polygon fill="#ff0000" stroke="#ff0000" stroke-width=".3975" points="301.2582,-35.4264 308.8189,-28.0044 298.28,-29.0915 301.2582,-35.4264"/>
</g>
<!-- In4 -->
<g id="node4" class="node">
<title>In4</title>
<polygon fill="#d3d3d3" stroke="#000000" points="257.7714,-103.6899 232.7714,-103.6899 232.7714,-85.6899 257.7714,-85.6899 257.7714,-103.6899"/>
<text text-anchor="middle" x="245.2714" y="-92.4899" font-family="Times,serif" font-size="9.00" fill="#000000">In4</text>
</g>
<!-- In4&#45;&gt;act1 -->
<g id="edge7" class="edge">
<title>In4&#45;&gt;act1</title>
<path fill="none" stroke="#00ff00" stroke-width=".5817" d="M237.4238,-85.5068C228.4392,-74.9933 213.3816,-57.3734 201.1198,-43.0249"/>
<polygon fill="#00ff00" stroke="#00ff00" stroke-width=".5817" points="203.4477,-40.3616 194.2903,-35.0333 198.1262,-44.9093 203.4477,-40.3616"/>
</g>
<!-- In4&#45;&gt;act2 -->
<g id="edge8" class="edge">
<title>In4&#45;&gt;act2</title>
<path fill="none" stroke="#00ff00" stroke-width=".7292" d="M255.3262,-85.5068C267.6015,-74.2957 288.7246,-55.004 304.9173,-40.2151"/>
<polygon fill="#00ff00" stroke="#00ff00" stroke-width=".7292" points="307.3864,-42.7002 312.41,-33.372 302.6657,-37.5314 307.3864,-42.7002"/>
</g>
<!-- &#45;5 -->
<g id="node5" class="node">
<title>&#45;5</title>
<polygon fill="#d3d3d3" stroke="#000000" points="298.2714,-103.6899 276.2714,-103.6899 276.2714,-85.6899 298.2714,-85.6899 298.2714,-103.6899"/>
<text text-anchor="middle" x="287.2714" y="-92.4899" font-family="Times,serif" font-size="9.00" fill="#000000">&#45;5</text>
</g>
<!-- &#45;5&#45;&gt;act1 -->
<g id="edge9" class="edge">
<title>&#45;5&#45;&gt;act1</title>
<path fill="none" stroke="#00ff00" stroke-width=".3762" d="M277.7195,-85.4244C274.2221,-82.1901 270.1659,-78.6166 266.2714,-75.598 247.3183,-60.9074 224.5456,-46.0959 207.3437,-35.4283"/>
<polygon fill="#00ff00" stroke="#00ff00" stroke-width=".3762" points="208.7742,-32.1998 198.4199,-29.9552 205.1145,-38.167 208.7742,-32.1998"/>
</g>
<!-- &#45;5&#45;&gt;act2 -->
<g id="edge10" class="edge">
<title>&#45;5&#45;&gt;act2</title>
<path fill="none" stroke="#ff0000" stroke-width=".3548" d="M292.1762,-85.5068C297.3629,-75.7958 305.7879,-60.022 313.0831,-46.3633"/>
<polygon fill="#ff0000" stroke="#ff0000" stroke-width=".3548" points="316.2755,-47.8154 317.8995,-37.3457 310.101,-44.5175 316.2755,-47.8154"/>
</g>
<!-- &#45;6 -->
<g id="node6" class="node">
<title>&#45;6</title>
<polygon fill="#d3d3d3" stroke="#000000" points="456.2714,-103.6899 434.2714,-103.6899 434.2714,-85.6899 456.2714,-85.6899 456.2714,-103.6899"/>
<text text-anchor="middle" x="445.2714" y="-92.4899" font-family="Times,serif" font-size="9.00" fill="#000000">&#45;6</text>
</g>
<!-- &#45;6&#45;&gt;act2 -->
<g id="edge11" class="edge">
<title>&#45;6&#45;&gt;act2</title>
<path fill="none" stroke="#ff0000" stroke-width=".173" d="M434.2672,-85.864C429.978,-82.5365 424.9708,-78.7876 420.2714,-75.598 398.4139,-60.7628 372.582,-45.4292 353.6965,-34.5991"/>
<polygon fill="#ff0000" stroke="#ff0000" stroke-width=".173" points="355.1942,-31.4244 344.772,-29.5197 351.7317,-37.5081 355.1942,-31.4244"/>
</g>
<!-- &#45;7 -->
<g id="node7" class="node">
<title>&#45;7</title>
<polygon fill="#d3d3d3" stroke="#000000" points="338.2714,-103.6899 316.2714,-103.6899 316.2714,-85.6899 338.2714,-85.6899 338.2714,-103.6899"/>
<text text-anchor="middle" x="327.2714" y="-92.4899" font-family="Times,serif" font-size="9.00" fill="#000000">&#45;7</text>
</g>
<!-- &#45;7&#45;&gt;act1 -->
<g id="edge12" class="edge">
<title>&#45;7&#45;&gt;act1</title>
<path fill="none" stroke="#ff0000" stroke-width=".4165" d="M318.8806,-85.4261C315.4999,-82.0449 311.421,-78.3736 307.2714,-75.598 276.2373,-54.84 236.2151,-38.654 209.6968,-29.1801"/>
<polygon fill="#ff0000" stroke="#ff0000" stroke-width=".4165" points="210.8363,-25.8709 200.2415,-25.8823 208.531,-32.4804 210.8363,-25.8709"/>
</g>
<!-- &#45;7&#45;&gt;act2 -->
<g id="edge13" class="edge">
<title>&#45;7&#45;&gt;act2</title>
<path fill="none" stroke="#00ff00" stroke-width=".7119" d="M327.2714,-85.5068C327.2714,-76.6576 327.2714,-62.7737 327.2714,-50.0437"/>
<polygon fill="#00ff00" stroke="#00ff00" stroke-width=".7119" points="330.7715,-49.7577 327.2714,-39.7577 323.7715,-49.7577 330.7715,-49.7577"/>
</g>
<!-- &#45;8 -->
<g id="node8" class="node">
<title>&#45;8</title>
<polygon fill="#d3d3d3" stroke="#000000" points="378.2714,-103.6899 356.2714,-103.6899 356.2714,-85.6899 378.2714,-85.6899 378.2714,-103.6899"/>
<text text-anchor="middle" x="367.2714" y="-92.4899" font-family="Times,serif" font-size="9.00" fill="#000000">&#45;8</text>
</g>
<!-- &#45;8&#45;&gt;act1 -->
<g id="edge14" class="edge">
<title>&#45;8&#45;&gt;act1</title>
<path fill="none" stroke="#ff0000" stroke-width=".5676" d="M359.3967,-85.6117C355.9624,-82.0944 351.7094,-78.2777 347.2714,-75.598 303.3992,-49.1071 245.3323,-33.3101 210.7845,-25.6095"/>
<polygon fill="#ff0000" stroke="#ff0000" stroke-width=".5676" points="211.3718,-22.1558 200.8597,-23.4767 209.9011,-28.9996 211.3718,-22.1558"/>
</g>
<!-- &#45;8&#45;&gt;act2 -->
<g id="edge15" class="edge">
<title>&#45;8&#45;&gt;act2</title>
<path fill="none" stroke="#00ff00" stroke-width=".2085" d="M362.3666,-85.5068C357.1799,-75.7958 348.7549,-60.022 341.4597,-46.3633"/>
<polygon fill="#00ff00" stroke="#00ff00" stroke-width=".2085" points="344.4418,-44.5175 336.6433,-37.3457 338.2674,-47.8154 344.4418,-44.5175"/>
</g>
<!-- &#45;9 -->
<g id="node9" class="node">
<title>&#45;9</title>
<polygon fill="#d3d3d3" stroke="#000000" points="42.2714,-167.7817 20.2714,-167.7817 20.2714,-149.7817 42.2714,-149.7817 42.2714,-167.7817"/>
<text text-anchor="middle" x="31.2714" y="-156.5817" font-family="Times,serif" font-size="9.00" fill="#000000">&#45;9</text>
</g>
<!-- &#45;9&#45;&gt;act1 -->
<g id="edge16" class="edge">
<title>&#45;9&#45;&gt;act1</title>
<path fill="none" stroke="#00ff00" stroke-width=".5639" stroke-dasharray="1,5" d="M23.7724,-149.6584C11.3261,-133.3472 -10.6332,-98.7311 6.2714,-75.598 23.5591,-51.9406 106.2042,-33.4947 151.4657,-24.9688"/>
<polygon fill="#00ff00" stroke="#00ff00" stroke-width=".5639" points="152.3743,-28.3606 161.5777,-23.112 151.11,-21.4757 152.3743,-28.3606"/>
</g>
<!-- &#45;9&#45;&gt;act2 -->
<g id="edge17" class="edge">
<title>&#45;9&#45;&gt;act2</title>
<path fill="none" stroke="#ff0000" stroke-width=".6192" d="M42.2735,-158.2405C99.751,-155.3032 363.7896,-140.4187 387.2714,-113.7817 408.6634,-89.5155 376.5606,-56.8829 351.6874,-37.1466"/>
<polygon fill="#ff0000" stroke="#ff0000" stroke-width=".6192" points="353.6876,-34.2702 343.6171,-30.9786 349.4369,-39.8318 353.6876,-34.2702"/>
</g>
<!-- 24 -->
<g id="node14" class="node">
<title>24</title>
<ellipse fill="#ffffff" stroke="#000000" cx="31.2714" cy="-94.6899" rx="16.0303" ry="16.0303"/>
<text text-anchor="middle" x="31.2714" y="-92.4899" font-family="Times,serif" font-size="9.00" fill="#000000">24</text>
</g>
<!-- &#45;9&#45;&gt;24 -->
<g id="edge20" class="edge">
<title>&#45;9&#45;&gt;24</title>
<path fill="none" stroke="#00ff00" stroke-width=".2515" d="M31.2714,-149.5989C31.2714,-142.149 31.2714,-131.2592 31.2714,-121.1381"/>
<polygon fill="#00ff00" stroke="#00ff00" stroke-width=".2515" points="34.7715,-121.0456 31.2714,-111.0457 27.7715,-121.0457 34.7715,-121.0456"/>
</g>
<!-- &#45;10 -->
<g id="node10" class="node">
<title>&#45;10</title>
<polygon fill="#d3d3d3" stroke="#000000" points="128.7714,-103.6899 103.7714,-103.6899 103.7714,-85.6899 128.7714,-85.6899 128.7714,-103.6899"/>
<text text-anchor="middle" x="116.2714" y="-92.4899" font-family="Times,serif" font-size="9.00" fill="#000000">&#45;10</text>
</g>
<!-- &#45;10&#45;&gt;act1 -->
<g id="edge18" class="edge">
<title>&#45;10&#45;&gt;act1</title>
<path fill="none" stroke="#ff0000" stroke-width=".462" d="M124.2417,-85.5068C133.5092,-74.8291 149.1386,-56.8214 161.6942,-42.3552"/>
<polygon fill="#ff0000" stroke="#ff0000" stroke-width=".462" points="164.3819,-44.5982 168.2934,-34.7518 159.0954,-40.0099 164.3819,-44.5982"/>
</g>
<!-- &#45;10&#45;&gt;act2 -->
<g id="edge19" class="edge">
<title>&#45;10&#45;&gt;act2</title>
<path fill="none" stroke="#00ff00" stroke-width=".2495" d="M124.5601,-85.5377C128.1691,-82.009 132.6317,-78.2039 137.2714,-75.598 189.4664,-46.2826 258.5617,-31.0314 297.4178,-24.2748"/>
<polygon fill="#00ff00" stroke="#00ff00" stroke-width=".2495" points="298.247,-27.6849 307.5362,-22.5897 297.0971,-20.78 298.247,-27.6849"/>
</g>
<!-- 205&#45;&gt;act2 -->
<g id="edge23" class="edge">
<title>205&#45;&gt;act2</title>
<path fill="none" stroke="#ff0000" stroke-width=".5703" d="M514.8398,-84.2797C509.6575,-81.2447 503.8317,-78.0807 498.2714,-75.598 450.0773,-54.0785 390.9837,-36.652 356.3899,-27.2941"/>
<polygon fill="#ff0000" stroke="#ff0000" stroke-width=".5703" points="357.0437,-23.8462 346.4796,-24.6533 355.2412,-30.6102 357.0437,-23.8462"/>
</g>
<!-- 24&#45;&gt;act1 -->
<g id="edge21" class="edge">
<title>24&#45;&gt;act1</title>
<path fill="none" stroke="#ff0000" stroke-width=".2083" d="M44.7828,-85.5589C49.8638,-82.2677 55.7483,-78.6225 61.2714,-75.598 91.9124,-58.8189 128.488,-42.2871 153.1392,-31.6282"/>
<polygon fill="#ff0000" stroke="#ff0000" stroke-width=".2083" points="154.7904,-34.7285 162.6026,-27.5716 152.0324,-28.2946 154.7904,-34.7285"/>
</g>
</g>
</svg>
